# xmcd
#
# Track frame offsets:
#	150
#	12921
#	29232
#	40930
#	56200
#	72045
#	84482
#	103997
#	119519
#	137099
#	154864
#	171866
#	185889
#	207094
#	219399
#	240954
#	251518
#
# Disc length: 3501 seconds
#
# Revision: 1
# Processed by: cddbd v1.5.2PL0 Copyright (c) Steve Scherf et al.
# Submitted via: audiograbber 1.83.01
#
DISCID=f80dab11
DTITLE=Sunnyland Slim - 1947-1961 [CD 4)
DYEAR=2017
DGENRE=Blues
TTITLE0=One room country shack
TTITLE1=I'm prison bound
TTITLE2=Brown skin woman
TTITLE3=La Salle St. Boogie
TTITLE4=I got the blues about my baby
TTITLE5=The devil is a busy man
TTITLE6=Everytime I get to drinkin'
TTITLE7=I'm prison bound
TTITLE8=Slim's shout
TTITLE9=The devil is a busy man
TTITLE10=Brown skin woman
TTITLE11=Shake it
TTITLE12=Decoration day
TTITLE13=Baby how long
TTITLE14=Sunnyland special
TTITLE15=Harlem can't be heaven
TTITLE16=It's you baby
EXTD=
EXTT0=
EXTT1=
EXTT2=
EXTT3=
EXTT4=
EXTT5=
EXTT6=
EXTT7=
EXTT8=
EXTT9=
EXTT10=
EXTT11=
EXTT12=
EXTT13=
EXTT14=
EXTT15=
EXTT16=
PLAYORDER=
